<svg width="6" height="154" viewBox="0 0 6 154" fill="none" xmlns="http://www.w3.org/2000/svg">
<path d="M2.33014 153.247C2.46683 153.384 2.68843 153.384 2.82512 153.247L5.0525 151.02C5.18919 150.883 5.18919 150.662 5.0525 150.525C4.91582 150.388 4.69421 150.388 4.55753 150.525L2.57763 152.505L0.597731 150.525C0.461048 150.388 0.23944 150.388 0.102756 150.525C-0.0339271 150.662 -0.0339271 150.883 0.102756 151.02L2.33014 153.247ZM2.57764 0L2.22764 -1.5299e-08L2.22763 153L2.57763 153L2.92763 153L2.92764 1.5299e-08L2.57764 0Z" fill="url(#paint0_linear_142_692)"/>
<defs>
<linearGradient id="paint0_linear_142_692" x1="2.07763" y1="153" x2="2.07764" y2="-2.18557e-08" gradientUnits="userSpaceOnUse">
<stop stop-color="white"/>
<stop offset="1" stop-color="white" stop-opacity="0"/>
</linearGradient>
</defs>
</svg>
