<svg width="171" height="47" viewBox="0 0 171 47" fill="none" xmlns="http://www.w3.org/2000/svg">
<path d="M67.125 0.564563V46.4353C67.125 46.7473 66.8724 46.9999 66.5604 46.9999H57.5274C57.2155 46.9999 56.9629 46.7473 56.9629 46.4353V10.714C56.9629 10.4021 56.7088 10.148 56.3969 10.1494L50.4732 10.1607C50.0074 10.1607 49.7407 9.63004 50.0201 9.25743L56.7921 0.225825C56.8994 0.0832731 57.0659 0 57.2437 0H66.559C66.871 0 67.1236 0.252642 67.1236 0.564563H67.125Z" fill="white" fill-opacity="0.8"/>
<path d="M88.1553 0.564563V46.4353C88.1553 46.7473 87.9026 46.9999 87.5907 46.9999H78.5577C78.2458 46.9999 77.9931 46.7473 77.9931 46.4353V10.714C77.9931 10.4021 77.7391 10.148 77.4272 10.1494L71.5035 10.1607C71.0377 10.1607 70.771 9.63004 71.0504 9.25743L77.8224 0.225825C77.9296 0.0832731 78.0962 0 78.274 0H87.5893C87.9012 0 88.1539 0.252642 88.1539 0.564563H88.1553Z" fill="white" fill-opacity="0.8"/>
<path d="M54.9868 12.7029V46.4328C54.9868 46.9762 54.2952 47.2062 53.9692 46.7701L50.0172 41.4787C49.9438 41.3813 49.9043 41.2628 49.9043 41.1414V12.7029C49.9043 12.391 50.1569 12.1384 50.4689 12.1384H54.4208C54.7327 12.1384 54.9854 12.391 54.9854 12.7029H54.9868Z" fill="white" fill-opacity="0.8"/>
<path d="M76.0164 12.7026L76.0122 46.4338C76.0122 46.9772 75.3206 47.2073 74.9945 46.7726L71.0426 41.4826C70.9692 41.3852 70.9297 41.2667 70.9297 41.1439L70.9339 12.7012C70.9339 12.3892 71.1866 12.1366 71.4985 12.1366H75.4504C75.7623 12.1366 76.015 12.3892 76.015 12.7012L76.0164 12.7026Z" fill="white" fill-opacity="0.8"/>
<path d="M23.4999 0C10.5206 0 0 10.5206 0 23.4999C0 36.4793 10.5206 46.9999 23.4999 46.9999C36.4793 46.9999 46.9999 36.4793 46.9999 23.4999C46.9999 10.5206 36.4793 0 23.4999 0ZM23.4999 36.9083C16.0943 36.9083 10.0916 30.9056 10.0916 23.4999C10.0916 16.0943 16.0943 10.0916 23.4999 10.0916C30.9056 10.0916 36.9083 16.0943 36.9083 23.4999C36.9083 30.9056 30.9056 36.9083 23.4999 36.9083Z" fill="white" fill-opacity="0.8"/>
<path d="M129.015 10.3287L105.686 35.8667C105.346 36.2393 105.61 36.8378 106.115 36.8378H128.588C128.908 36.8378 129.168 37.0975 129.168 37.4178V46.4198C129.168 46.7402 128.908 46.9999 128.588 46.9999H91.6397C91.3193 46.9999 91.0596 46.7402 91.0596 46.4198V37.0636C91.0596 36.9182 91.1132 36.7785 91.212 36.6726L114.541 11.1346C114.881 10.762 114.617 10.1636 114.112 10.1636H91.6397C91.3193 10.1636 91.0596 9.90385 91.0596 9.58346V0.580089C91.0596 0.259699 91.3193 0 91.6397 0H128.588C128.908 0 129.168 0.259699 129.168 0.580089V9.93631C129.168 10.0817 129.114 10.2214 129.015 10.3273V10.3287Z" fill="white" fill-opacity="0.8"/>
<path d="M142.235 10.7422V17.8388C142.235 18.1592 142.495 18.4189 142.815 18.4189H169.601C169.922 18.4189 170.181 18.6786 170.181 18.999V28.0009C170.181 28.3213 169.922 28.581 169.601 28.581H142.815C142.495 28.581 142.235 28.8407 142.235 29.1611V36.2577C142.235 36.5781 142.495 36.8378 142.815 36.8378H169.601C169.922 36.8378 170.181 37.0975 170.181 37.4178V46.4198C170.181 46.7402 169.922 46.9999 169.601 46.9999H132.653C132.333 46.9999 132.073 46.7402 132.073 46.4198V0.580089C132.073 0.259699 132.333 0 132.653 0H169.601C169.922 0 170.181 0.259699 170.181 0.580089V9.58205C170.181 9.90244 169.922 10.1621 169.601 10.1621H142.815C142.495 10.1621 142.235 10.4218 142.235 10.7422Z" fill="white" fill-opacity="0.8"/>
</svg>
