<svg width="309" height="86" viewBox="0 0 309 86" fill="none" xmlns="http://www.w3.org/2000/svg">
<path d="M263.967 0.122162C272.941 0.122162 280.814 1.87616 287.585 5.38416C294.438 8.89215 299.7 13.9094 303.371 20.4359C307.124 26.8809 309 34.3863 309 42.9524C309 51.5184 307.124 59.0239 303.371 65.4688C299.7 71.8322 294.438 76.7679 287.585 80.2759C280.814 83.7839 272.941 85.5378 263.967 85.5378H234.108V0.122162H263.967ZM263.355 70.9756C272.329 70.9756 279.264 68.5281 284.159 63.6333C289.053 58.7384 291.501 51.8447 291.501 42.9524C291.501 34.06 289.053 27.1256 284.159 22.1491C279.264 17.0911 272.329 14.5621 263.355 14.5621H251.24V70.9756H263.355Z" fill="white"/>
<path d="M217.178 85.5381H200.046L161.254 26.9219V85.5381H144.122V6.10352e-05H161.254L200.046 58.7386V6.10352e-05H217.178V85.5381Z" fill="white"/>
<path d="M127.195 0.122162V85.5378H110.062V0.122162H127.195Z" fill="white"/>
<path d="M93.1251 0.122162V85.5378H75.993V29.9809L53.1095 85.5378H40.138L17.1321 29.9809V85.5378H0V0.122162H19.4572L46.6238 63.6333L73.7904 0.122162H93.1251Z" fill="white"/>
</svg>
